<?xml version="1.0" encoding="UTF-8"?><svg id="_レイヤー_2" xmlns="http://www.w3.org/2000/svg" xmlns:xlink="http://www.w3.org/1999/xlink" viewBox="0 0 496 103"><defs><style>.cls-1{filter:url(#drop-shadow-1);}.cls-1,.cls-2,.cls-3,.cls-4{fill:#fec8d8;}.cls-2{filter:url(#drop-shadow-3);}.cls-3{filter:url(#drop-shadow-2);}.cls-4{filter:url(#drop-shadow-4);}.cls-5{fill:#ef75a7;}</style><filter id="drop-shadow-1" filterUnits="userSpaceOnUse"><feOffset dx="2" dy="2"/><feGaussianBlur result="blur" stdDeviation="3"/><feFlood flood-color="#bf9fa9" flood-opacity=".25"/><feComposite in2="blur" operator="in"/><feComposite in="SourceGraphic"/></filter><filter id="drop-shadow-2" filterUnits="userSpaceOnUse"><feOffset dx="2" dy="2"/><feGaussianBlur result="blur-2" stdDeviation="3"/><feFlood flood-color="#bf9fa9" flood-opacity=".25"/><feComposite in2="blur-2" operator="in"/><feComposite in="SourceGraphic"/></filter><filter id="drop-shadow-3" filterUnits="userSpaceOnUse"><feOffset dx="2" dy="2"/><feGaussianBlur result="blur-3" stdDeviation="3"/><feFlood flood-color="#bf9fa9" flood-opacity=".25"/><feComposite in2="blur-3" operator="in"/><feComposite in="SourceGraphic"/></filter><filter id="drop-shadow-4" filterUnits="userSpaceOnUse"><feOffset dx="2" dy="2"/><feGaussianBlur result="blur-4" stdDeviation="3"/><feFlood flood-color="#bf9fa9" flood-opacity=".25"/><feComposite in2="blur-4" operator="in"/><feComposite in="SourceGraphic"/></filter></defs><g id="_レイヤー_1-2"><path class="cls-1" d="M52.1699977,72.1956311c-2.9429768-.9282304-4.5152216-1.4984886-4.5152216-1.4984886l-.1597333-35.9637254L15.0842615,24.7351686l11.2657985,28.5711818-18.5007345,19.4803512,63.2128999,18.6436951.1778411-.8928494-23.5904496-19.3513147,4.5203808,1.0093985Z"/><path class="cls-3" d="M417.7157986,73.98133l-.0052604.1519301,8.9381843,1.8418922c-2.7024159-.6410201-5.6862617-1.3111775-8.9329239-1.9938223Z"/><path class="cls-2" d="M442.3537707,80.1667578l-24.3312519,7.5486361,66.2975022,2.4516938-15.5870944-24.9914592,14.9967186-23.9487609-38.6870142-.9303116-.7870328,40.4695972s-.6585583-.2185296-1.9018274-.5993954Z"/><path class="cls-4" d="M444.7441041,79.8748166l.0523298,1.173816.7890037-40.4695972.3326391-17.0723634s-75.2416674-29.3362353-202.4421259-8.3457488c-127.2004585,20.9904866-196.5219613,0-196.5219613,0l.0883319,19.8549734.1601333,35.9637254s49.3217535,25.560946,197.9557575,6.1354781c148.634004-19.4254679,199.5858919,2.7597164,199.5858919,2.7597164Z"/><polygon class="cls-5" points="52.1699977 72.1956311 47.6496169 71.1862326 71.2400666 90.5375473 72.0882007 91.2326795 75.9270596 78.5080142 52.1699977 72.1956311"/><polygon class="cls-5" points="442.3537707 80.1667578 444.203399 79.5923372 426.6487225 75.9751523 417.7105382 74.1332601 415.5804915 73.6941197 416.0237791 88.3356016 418.0225188 87.7153939 442.3537707 80.1667578"/></g></svg>