<?xml version="1.0" encoding="UTF-8"?><svg id="_レイヤー_2" xmlns="http://www.w3.org/2000/svg" viewBox="0 0 37.9508167 31.8942948"><defs><style>.cls-1{fill:#fff;stroke:#fff;stroke-miterlimit:10;stroke-width:.75px;}</style></defs><g id="header"><path class="cls-1" d="M27.5384552,24.6734952H4.6434125L.4695533,6.2666083h31.2435993l-4.1746974,18.4068869ZM5.3289982,23.8152558h21.5238713l3.7858077-16.6904082H1.5440287l3.7849695,16.6904082Z"/><path class="cls-1" d="M10.0183039,31.5192948c-1.4197826,0-2.574718-1.1549353-2.574718-2.574718s1.1549353-2.574718,2.574718-2.574718,2.574718,1.1549353,2.574718,2.574718-1.1549353,2.574718-2.574718,2.574718ZM10.0183039,27.2280982c-.9462424,0-1.7164787.7698172-1.7164787,1.7164787s.7702363,1.7164787,1.7164787,1.7164787,1.7164787-.7698172,1.7164787-1.7164787-.7702363-1.7164787-1.7164787-1.7164787Z"/><path class="cls-1" d="M20.7462955,31.5192948c-1.4197826,0-2.574718-1.1549353-2.574718-2.574718s1.1549353-2.574718,2.574718-2.574718,2.574718,1.1549353,2.574718,2.574718-1.1549353,2.574718-2.574718,2.574718ZM20.7462955,27.2280982c-.9462424,0-1.7164787.7698172-1.7164787,1.7164787s.7702363,1.7164787,1.7164787,1.7164787,1.7164787-.7698172,1.7164787-1.7164787-.7702363-1.7164787-1.7164787-1.7164787Z"/><path class="cls-1" d="M31.3544354,7.1198189l-.1994736-.0247247.1491861-.8448293c-.2053405-.0368775-.3578791.0934509-.3955947.1705583.0695643-.1466718.1944448-.8867356.2941816-1.4818038.1919305-1.1411063.4307959-2.5617271.7811319-3.5197032.1366143-.3742225.4140334-.6637945.802085-.8372862,1.4742607-.6596039,4.354056.4563587,4.677572.5858489l-.3184873.7970563c-.7853225-.3138776-3.0390389-1.0329883-4.0095869-.5992589-.1785205.0800409-.2874767.1902542-.3453072.3478216-.3226779.8842212-.5548383,2.2616785-.7409019,3.3680027-.2505992,1.4914423-.3142966,1.7701186-.5481333,1.9352291l-.1466718.1030893Z"/></g></svg>