<?xml version="1.0" encoding="UTF-8"?><svg id="_レイヤー_2" xmlns="http://www.w3.org/2000/svg" viewBox="0 0 777.24 216.55"><defs><style>.cls-1{fill-rule:evenodd;}.cls-1,.cls-2{fill:#fff;stroke-width:0px;}</style></defs><g id="_レイヤー_1-2"><path class="cls-2" d="M0,211.59c0-.66,0-1.65.33-2.31,4.63-11.9,14.55-35.71,40-96.21,15.87-38.02,37.03-86.29,37.03-93.89,0-8.27-8.6-9.92-14.88-9.92-10.25,0-38.35,7.6-38.35,19.84,0,1.65-1.98,2.98-3.97,2.98-2.64,0-3.97-1.32-3.97-3.31C16.2,10.25,48.93.99,62.49.99c11.57,0,23.14,5.29,23.14,17.85,0,7.94-8.93,27.77-13.56,38.68C89.27,32.07,112.41,0,142.16,0c19.84,0,27.77,19.84,27.77,36.37,0,53.89-53.89,94.89-101.5,94.89-4.3,0-7.93-.33-11.24-.66,11.57,28.43,31.41,74.39,54.55,74.39,29.09,0,50.91-29.42,66.78-46.95.99-.99,2.31-1.32,3.31-1.32,2.65,0,3.64,2.31,3.64,4.3,0,.99-.33,1.98-.99,2.64-30.09,33.06-46.62,49.26-72.73,49.26-30.09,0-50.58-50.25-65.13-86.29-.33-.66-.99-1.65-.99-2.65,0-2.65,1.98-4.3,3.64-4.3.66,0,1.65,0,2.65.33,2.98,1.65,8.93,2.65,16.53,2.65,46.95,0,93.23-39.67,93.23-86.95,0-13.56-5.62-27.44-19.84-27.44s-27.77,9.26-45.62,29.76c-15.54,17.85-36.37,55.87-47.61,76.7C22.48,176.55,12.56,200.35,7.93,212.25c-.66,1.65-2.31,2.64-3.97,2.64-1.98,0-3.97-1.32-3.97-3.31Z"/><path class="cls-2" d="M308.45,198.7l-11.57,11.57c-.99,1.32-2.64,1.65-4.3,1.32-2.31-.66-2.98-3.31-2.65-4.96.33-.66.33-1.32.99-1.98,13.22-13.88,35.71-37.69,44.63-48.27,12.56-14.55,25.13-31.08,33.72-43.97,1.32-1.98,4.3-6.28,7.6-6.28,2.31,0,3.64,2.31,3.64,4.3,0,2.65-2.98,4.96-4.63,7.27-1.65,3.64-1.98,8.6-1.98,14.55,0,14.88,1.98,27.44,1.98,40.33,0,10.25-.99,20.17-4.96,28.1,18.18-9.59,35.71-27.11,49.59-42.65.66-.99,1.98-1.32,2.98-1.32,2.64,0,3.97,1.98,3.97,3.97,0,.99-.33,2.31-.99,2.97-20.83,24.13-51.91,52.9-81.66,52.9-14.55,0-27.11-7.6-36.37-17.85ZM367.63,173.24c0-15.21-2.31-27.77-2.31-40.33-5.95,8.6-15.21,20.17-26.78,33.39-4.96,5.62-9.59,11.24-24.13,26.78,8.6,9.59,17.85,14.88,31.74,14.88,16.53,0,21.49-15.21,21.49-34.71Z"/><path class="cls-2" d="M472.42,194.73c0-2.31.33-4.3.66-6.94-10.25,12.56-23.8,26.12-40.33,26.12-14.22,0-21.49-10.91-21.49-24.8,0-36.37,42.32-80.01,81.66-80.01,10.91,0,17.52,2.98,18.18,3.31,1.65.66,2.98,1.65,2.98,3.31,0,.66-.33,1.65-.66,2.31-.99,1.98-10.91,25.79-25.79,49.26-3.97,10.58-6.94,20.5-6.94,27.44,0,5.95,2.98,10.91,8.6,10.91,11.24,0,45.29-38.68,53.23-47.61,1.65-1.65,2.31-1.65,3.31-1.65,2.31,0,3.97,2.31,3.97,4.3,0,.99-.66,2.31-1.32,2.97-29.75,32.73-46.62,50.25-59.18,50.25-11.57,0-16.86-9.59-16.86-19.18ZM419.53,189.44c0,8.6,4.3,16.2,12.89,16.2,18.51,0,38.35-26.12,47.61-41.66,7.27-18.18,17.85-36.7,23.14-45.29-2.64-.66-6.28-1.32-10.58-1.32-36.04,0-73.07,42.32-73.07,72.07Z"/><path class="cls-2" d="M547.8,193.74c0-13.55,3.97-26.45,7.93-38.02l-6.94,7.6c-.99.99-1.98,1.32-2.97,1.32-2.65,0-4.3-1.98-4.3-3.97,0-.99.33-1.98.99-2.64,3.31-3.31,10.91-12.23,21.49-25.79,27.11-72.4,41-97.53,45.29-105.47,12.23-22.48,22.48-26.78,28.76-26.78,8.27,0,11.57,7.6,11.57,14.55,0,4.3-.99,9.26-3.31,13.89-12.23,25.46-49.59,75.71-75.05,108.11-6.94,18.51-12.89,36.04-14.55,47.94-.33,3.64-.66,6.61-.66,8.93,0,6.61.66,11.9,7.94,11.9,10.25,0,37.03-33.72,50.58-47.28.99-.99,1.98-1.65,3.31-1.65,2.64,0,3.97,2.31,3.97,4.3,0,.99-.66,2.31-1.32,2.97-14.22,14.22-40.67,50.25-57.53,50.25-11.24,0-15.21-10.91-15.21-20.17ZM616.57,30.75c-12.56,21.82-25.46,55.21-34.71,78.69,22.48-29.75,47.28-65.13,56.87-84.64,1.98-3.97,2.65-7.6,2.65-10.25,0-3.31-.99-6.28-3.64-6.28-3.97,0-11.57,5.62-21.16,22.48Z"/><path class="cls-2" d="M617.22,200.35c0-14.55,10.91-38.68,18.18-53.89-9.26,10.91-11.24,13.55-14.88,17.19-.99.99-1.65,1.32-2.64,1.32-2.31,0-3.97-2.31-3.97-4.3,0-.99.33-1.98.99-2.64,1.65-1.98,6.94-8.93,16.53-19.84l21.49-25.13c.66-.99,1.98-1.65,3.31-1.65,2.64,0,3.97,1.32,3.97,3.64,0,.66,0,1.98-.33,2.64-1.98,3.31-11.9,21.16-20.83,40.67-6.61,14.88-12.56,30.42-13.56,40.67,0,3.97.33,6.94,3.64,6.94,2.65,0,6.28-1.32,10.25-4.96,22.15-20.17,41.66-42.65,41.99-42.98.66-.99,1.98-1.32,3.31-1.32,2.64,0,3.97,2.31,3.97,3.97,0,.99-.66,2.31-1.32,2.97-.33.33-12.89,15.87-42.65,43.31-5.29,4.96-10.91,7.27-15.87,7.27-8.6,0-11.57-7.27-11.57-13.88ZM675.74,86.95c-4.63,0-6.28-3.64-6.28-7.6,0-5.29,3.97-9.59,8.6-9.59s6.61,3.64,6.61,7.27c0,7.93-5.62,9.92-8.93,9.92Z"/><path class="cls-2" d="M674.75,186.46c0-27.77,26.12-75.71,55.21-75.71,10.25,0,16.86,5.62,16.86,14.88,0,15.21-20.17,33.72-60.83,42.32-1.98,6.94-2.98,12.89-2.98,19.18,0,11.24,4.96,18.84,16.2,18.84,15.54,0,41.66-14.22,71.08-47.94.66-.99,1.98-1.32,3.31-1.32,2.65,0,3.64,2.65,3.64,4.3,0,.99-.33,1.98-.99,2.64-27.77,32.07-55.87,50.58-76.37,50.58-18.18,0-25.13-13.22-25.13-27.77ZM689.62,158.69c34.38-8.6,48.93-24.13,48.93-33.39,0-4.96-5.62-6.28-8.6-6.28-17.19,0-33.72,25.13-40.33,39.67Z"/><path class="cls-1" d="M290.44,103.61c0,11.72.39,23.46-.13,35.15-.38,8.54-2.1,17.02-2.98,25.55-.64,6.18-.73,12.42-1.39,18.6-.34,3.2-1.38,6.32-2.16,9.46-1.12,4.55-5.04,6.92-7.89,10.14-5.1,5.74-21.87,9.44-37.84,8.84-8.26-.31-15.87-4.82-22.49-10.46-7.49-6.37-10.5-14.91-13.28-23.75-4.04-12.82-7.59-32.29-3.85-45.56.92-3.27,1.33-5.8-1.71-7.85-5.92-4-6.75-9.29-4.3-15.61.29-.76-.2-1.87-.48-2.78-.9-2.98-2.09-5.9-2.72-8.94-.29-1.38.14-3.17.83-4.46,3.43-6.4,9.28-9.27,16.16-10.26,4.19-.6,8.43-.9,12.66-1.14,2.21-.13,4.11.45,6.25,1.69,2.61,1.51,6.2,1.41,9.4,1.79,3.71.43,5.92-2.23,8.22-4.48,1.95-1.91,3.56-4.19,5.56-6.04,4.13-3.83,8.24-3.52,11.3,1.23,2.27,3.51,4.88,4.96,9.13,5.03,15.13.23,22.05,23.84,21.72,23.84ZM274.59,190.01c4.89-6.03,8.11-12.96,8.38-19.34.1-2.32-2.91-41.36-4.72-40.38-13.21,7.17-31.68,10.83-43.52,20.31-13.17,10.53-17.8,34.77-5.61,48.32,13.13,14.6,33.95,5.33,45.48-8.91ZM244.85,139.01c.22.26.45.51.67.77,4.85-1.94,9.58-4.24,14.57-5.7,4.63-1.36,8.02-3.77,11.22-7.39,2.55-2.88,2.7-4.87.77-7.79-.88-1.33-1.27-2.98-1.88-4.49,1.39,1.29,2.79,2.58,4.18,3.87.08.08,9.69,10.51,11.38,8.92,1.1-1.04,1.34-9.74,1.5-11.68.48-5.78-1.28-13.27-4.36-19.02-2.7-5.05-6.73-7.72-10.63-10.98-.63-.52-2.14.02-3.24.07.21,1.01.27,2.08.65,3.03.42,1.03-.89,1.08-.42,2.08,1.08,2.28,1.75,6.64-.94,8.16-2.51,1.42-2.74-3-3.56-4.17-1.85-2.64-1.32-4.98-3-7.75-2.12-3.5-6.1-8.65-10.75-8.25-1.54.13-3.59,4.81-5.06,5.81.86.68,1.63,1.53,2.59,1.99,1.44.69,2.99,1.2,4.53,1.61,7.6,2,9.28,4.69,8.52,13.6-.24,2.77-1.84,5.39-2.48,8.16-.3,1.31-.33,3.33.44,4.09,1.53,1.51,2.53-.1,3.33-1.47,2.96-5.08,6.64-9.59,11.23-13.28.59-.47,2.24-.59,2.61-.17.62.7.89,2,.77,2.98-.09.72-1.1,1.29-1.62,2-2.56,3.49-5.07,7.01-7.63,10.5-4.17,5.68-7.5,11.98-13.72,16.04-3.55,2.32-6.47,5.6-9.68,8.45ZM211.47,85.04c-4.24,1.49-9.15,2.84-13.71,4.94-4.03,1.86-4.58,4.11-3.12,8.34.97,2.82,1.95,5.65,3.2,8.35,1.02,2.22,3.04,4.35-1.33,5.14-.4.07-.78,1.21-.87,1.89-.51,3.64,2.68,7.4,6.39,7.68.69.05,1.68.08,2.01.52,3.53,4.73,9.67,7.22,11.49,13.48.22.75,1.95,1.07,2.98,1.58.52-1.44,1.91-3.36,1.42-4.23-1.67-2.98-4.09-5.52-6.07-8.35-2.83-4.04-5.93-7.97-8.14-12.33-2.09-4.12-2.4-8.55,1.59-12.28.86-.81.9-2.46,1.46-3.66.24-.53,1.1-1.33,1.24-1.26,2.4,1.4,5.19,2.52,6.96,4.52,2.26,2.55,3.42,2.05,5.19-.24,1.57-2.03,3.43-3.85,5.26-5.66.8-.79,1.83-1.35,2.76-2.02-.96-.89-1.78-2.27-2.91-2.59-4.89-1.37-9.87-2.43-15.79-3.83ZM203.41,130.7c-.07-.13-.11-.21-.11-.19,3.91,12.34-1.59,25.36,1.35,37.85,1.39,5.91,4.47,11.58,7.18,16.97.51,1.02,5.41,12.09,6.43,12.11.94.02.45-38.66,1.25-44.5.73-5.29-15.76-21.61-16.1-22.25ZM224.55,137.1c.26.74.66,2.03,1.19,3.28,1.71,4.06,2.93,4.29,6.2,1.48,1.78-1.52,3.83-2.72,5.67-4.18,6.72-5.32,13.45-10.64,20.05-16.11.6-.5.84-2.5.37-3.04-1.45-1.67-5.57-.51-6.52,1.61-2.39,5.36-6.44,2.39-11.66-.44-1.63-.89-5.24.11-7.08.5-6.85,1.45-4.6,10.68-8.11,15.18-.19.24-.05.73-.1,1.72ZM223.62,111.25c.48,1.41,1.04,3.09,1.61,4.77,1.89-.66,3.78-1.3,5.66-1.99.34-.12.57-.5.9-.66,2.41-1.14,2.94-3.64,2.1-5.37-1-2.05-3.08-3.89-5.13-4.94-.71-.36-3.13,1.69-4.1,3.1-.82,1.2-.68,3.06-1.05,5.08ZM256.47,101.81c.86-2.43.64-4.54-2.01-4.89-1.97-.25-4.2.61-6.09,1.51-1.05.5-3.09,4.63-3.12,5.67-.08,2.54,2.67,3.91,3.88,5.89.89,1.46,5.82-3.88,7.35-8.18ZM249.56,91.32c.2-.31.4-.62.6-.93-.49-.14-1.08-.15-1.46-.44-3.65-2.73-6.69-2.38-9.33,1.31-1.89,2.64-3.46,5.56-7.38,5.47-.31,0-.64.76-.96,1.17,1.2.79,2.33,1.94,3.64,2.22.71.15,2.45-1.12,2.5-1.83.17-2.52,1.82-3.46,3.7-4.14,2.09-.76,4.28-1.21,6.41-1.85.78-.24,1.51-.64,2.27-.97ZM212.93,103.86c-.37.75-1.63,2.08-1.37,3,1.03,3.68,2.43,7.26,3.92,10.79.27.63,1.55.83,2.37,1.23.01-.79.1-1.58.02-2.36-.31-2.9-1.38-5.94-.83-8.66.65-3.19-.62-3.69-4.11-4Z"/></g></svg>